<?xml version="1.0" encoding="UTF-8" standalone="no"?>
<!-- Created with Inkscape (http://www.inkscape.org/) -->

<svg
   width="128.32292mm"
   height="54.239582mm"
   viewBox="0 0 128.32292 54.239582"
   version="1.1"
   id="svg5"
   inkscape:version="1.2 (dc2aedaf03, 2022-05-15)"
   sodipodi:docname="godo-full.svg"
   xmlns:inkscape="http://www.inkscape.org/namespaces/inkscape"
   xmlns:sodipodi="http://sodipodi.sourceforge.net/DTD/sodipodi-0.dtd"
   xmlns="http://www.w3.org/2000/svg"
   xmlns:svg="http://www.w3.org/2000/svg"
   xmlns:rdf="http://www.w3.org/1999/02/22-rdf-syntax-ns#"
   xmlns:cc="http://creativecommons.org/ns#">
  <sodipodi:namedview
     id="namedview7"
     pagecolor="#505050"
     bordercolor="#ffffff"
     borderopacity="1"
     inkscape:showpageshadow="false"
     inkscape:pageopacity="0"
     inkscape:pagecheckerboard="true"
     inkscape:deskcolor="#505050"
     inkscape:document-units="mm"
     showgrid="false"
     showguides="true"
     showborder="false"
     borderlayer="true"
     shape-rendering="auto"
     inkscape:zoom="1.4142136"
     inkscape:cx="263.39727"
     inkscape:cy="62.932503"
     inkscape:window-width="1263"
     inkscape:window-height="1416"
     inkscape:window-x="0"
     inkscape:window-y="0"
     inkscape:window-maximized="1"
     inkscape:current-layer="layer3">
    <inkscape:grid
       type="xygrid"
       id="grid8461"
       originx="0"
       originy="0" />
  </sodipodi:namedview>
  <defs
     id="defs2">
    <rect
       x="125.36295"
       y="347.49985"
       width="379.28329"
       height="24.641575"
       id="rect7619" />
    <rect
       x="138.0094"
       y="216.42421"
       width="205.00705"
       height="86.820267"
       id="rect63" />
  </defs>
  <g
     inkscape:groupmode="layer"
     id="layer5"
     inkscape:label="Background"
     sodipodi:insensitive="true"
     style="display:inline">
    <rect
       style="fill:#00add8;fill-opacity:1;stroke-width:0.343909"
       id="rect7733"
       width="128.32292"
       height="54.239582"
       x="0"
       y="0"
       ry="0"
       sodipodi:insensitive="true" />
  </g>
  <g
     inkscape:label="Midground"
     inkscape:groupmode="layer"
     id="layer1"
     sodipodi:insensitive="true"
     style="display:inline">
    <rect
       style="display:inline;fill:#bfe1f1;fill-opacity:1;stroke-width:0.346867"
       id="rect171"
       width="123.03125"
       height="48.947918"
       x="2.6458333"
       y="2.6458333"
       ry="2.5478375"
       sodipodi:insensitive="true" />
  </g>
  <g
     inkscape:groupmode="layer"
     id="layer3"
     inkscape:label="Subheading"
     transform="translate(-77.151098,-71.376757)"
     style="display:inline"
     sodipodi:insensitive="true">
    <g
       aria-label="A command line todo list application"
       transform="matrix(0.26458333,0,0,0.26458333,58.795272,13.981588)"
       id="text7617"
       style="font-size:21.3333px;font-family:Lexend;-inkscape-font-specification:Lexend;white-space:pre;shape-inside:url(#rect7619);display:inline;fill:#00add8"
       sodipodi:insensitive="true">
      <path
         d="m 125.89661,367.2333 5.78133,-14.93331 h 2.34666 l 5.73866,14.93331 h -2.45333 l -3.41333,-9.00265 q -0.064,-0.14933 -0.256,-0.72533 -0.17066,-0.576 -0.40533,-1.28 -0.23467,-0.704 -0.42667,-1.28 -0.192,-0.59733 -0.256,-0.768 l 0.49067,-0.0213 q -0.128,0.36267 -0.32,0.91733 -0.17067,0.55467 -0.384,1.17333 -0.192,0.61867 -0.384,1.17333 -0.192,0.53334 -0.32,0.896 l -3.39199,8.91732 z m 2.56,-3.71199 0.85333,-2.21867 h 6.78399 l 0.98133,2.21867 z"
         style="fill:#00385c"
         id="path8543"
         sodipodi:insensitive="true" />
      <path
         d="m 152.56327,367.44664 q -1.55733,0 -2.79466,-0.768 -1.216,-0.768 -1.94133,-2.09067 -0.704,-1.32266 -0.704,-2.96533 0,-1.64266 0.704,-2.96532 0.72533,-1.32267 1.94133,-2.09067 1.23733,-0.768 2.79466,-0.768 1.49333,0 2.70933,0.61867 1.23733,0.59733 1.87733,1.64266 l -1.216,1.49333 q -0.34133,-0.49066 -0.87467,-0.89599 -0.53333,-0.40534 -1.13066,-0.64 -0.59733,-0.23467 -1.152,-0.23467 -1.024,0 -1.83466,0.512 -0.78933,0.49067 -1.25867,1.36533 -0.46933,0.87467 -0.46933,1.96266 0,1.088 0.49067,1.96267 0.49066,0.85333 1.30133,1.36533 0.81066,0.512 1.79199,0.512 0.576,0 1.10934,-0.192 0.55466,-0.192 1.06666,-0.576 0.512,-0.384 0.96,-0.93867 l 1.216,1.49334 q -0.68267,0.95999 -1.96267,1.57866 -1.25866,0.61867 -2.62399,0.61867 z"
         style="fill:#00385c"
         id="path8545"
         sodipodi:insensitive="true" />
      <path
         d="m 164.25391,367.44664 q -1.64266,0 -2.94399,-0.74667 -1.28,-0.768 -2.02666,-2.06933 -0.74667,-1.32266 -0.74667,-3.008 0,-1.68533 0.74667,-2.98666 0.74666,-1.32266 2.02666,-2.06933 1.30133,-0.768 2.94399,-0.768 1.62134,0 2.90133,0.768 1.30133,0.74667 2.048,2.06933 0.74667,1.30133 0.74667,2.98666 0,1.68534 -0.74667,3.008 -0.74667,1.30133 -2.048,2.06933 -1.27999,0.74667 -2.90133,0.74667 z m 0,-2.00534 q 1.00267,0 1.792,-0.49066 0.78933,-0.512 1.23733,-1.36533 0.448,-0.87467 0.42667,-1.96267 0.0213,-1.10933 -0.42667,-1.96266 -0.448,-0.87466 -1.23733,-1.36533 -0.78933,-0.49067 -1.792,-0.49067 -1.00266,0 -1.81333,0.512 -0.78933,0.49067 -1.23733,1.36533 -0.448,0.85334 -0.42666,1.94133 -0.0213,1.088 0.42666,1.96267 0.448,0.85333 1.23733,1.36533 0.81067,0.49066 1.81333,0.49066 z"
         style="fill:#00385c"
         id="path8547"
         sodipodi:insensitive="true" />
      <path
         d="m 172.29656,367.2333 v -11.19998 h 2.21866 v 2.38933 l -0.40533,0.256 q 0.17067,-0.55467 0.53333,-1.06667 0.384,-0.512 0.91734,-0.89599 0.55466,-0.40534 1.17333,-0.64 0.64,-0.23467 1.30133,-0.23467 0.96,0 1.68533,0.32 0.72533,0.32 1.19466,0.96 0.46934,0.64 0.68267,1.6 l -0.34133,-0.0853 0.14933,-0.36266 q 0.23467,-0.49067 0.64,-0.91734 0.42667,-0.44799 0.96,-0.78933 0.53333,-0.34133 1.13066,-0.53333 0.59733,-0.192 1.17333,-0.192 1.25867,0 2.06933,0.512 0.832,0.512 1.23734,1.55733 0.42666,1.04533 0.42666,2.60266 v 6.71999 h -2.21866 v -6.59199 q 0,-0.96 -0.256,-1.55733 -0.23467,-0.61866 -0.72533,-0.91733 -0.49067,-0.29867 -1.25867,-0.29867 -0.59733,0 -1.13066,0.21334 -0.512,0.192 -0.896,0.55466 -0.384,0.36267 -0.59733,0.85333 -0.21334,0.46934 -0.21334,1.04534 v 6.69865 h -2.21866 v -6.63465 q 0,-0.87467 -0.256,-1.472 -0.256,-0.61867 -0.74667,-0.93867 -0.49066,-0.32 -1.19466,-0.32 -0.59733,0 -1.10933,0.21334 -0.512,0.192 -0.896,0.55466 -0.384,0.34134 -0.59733,0.832 -0.21334,0.46933 -0.21334,1.024 v 6.74132 z"
         style="display:inline;fill:#00385c"
         id="path8549"
         sodipodi:insensitive="true" />
      <path
         d="m 191.94452,367.2333 v -11.19998 h 2.21866 v 2.38933 l -0.40533,0.256 q 0.17066,-0.55467 0.53333,-1.06667 0.384,-0.512 0.91733,-0.89599 0.55467,-0.40534 1.17333,-0.64 0.64,-0.23467 1.30134,-0.23467 0.95999,0 1.68533,0.32 0.72533,0.32 1.19466,0.96 0.46933,0.64 0.68267,1.6 l -0.34134,-0.0853 0.14934,-0.36266 q 0.23466,-0.49067 0.64,-0.91734 0.42666,-0.44799 0.95999,-0.78933 0.53334,-0.34133 1.13067,-0.53333 0.59733,-0.192 1.17333,-0.192 1.25867,0 2.06933,0.512 0.832,0.512 1.23733,1.55733 0.42667,1.04533 0.42667,2.60266 v 6.71999 h -2.21866 v -6.59199 q 0,-0.96 -0.256,-1.55733 -0.23467,-0.61866 -0.72534,-0.91733 -0.49066,-0.29867 -1.25866,-0.29867 -0.59733,0 -1.13067,0.21334 -0.512,0.192 -0.89599,0.55466 -0.384,0.36267 -0.59734,0.85333 -0.21333,0.46934 -0.21333,1.04534 v 6.69865 h -2.21866 v -6.63465 q 0,-0.87467 -0.256,-1.472 -0.256,-0.61867 -0.74667,-0.93867 -0.49066,-0.32 -1.19466,-0.32 -0.59734,0 -1.10933,0.21334 -0.512,0.192 -0.896,0.55466 -0.384,0.34134 -0.59734,0.832 -0.21333,0.46933 -0.21333,1.024 v 6.74132 z"
         style="fill:#00385c"
         id="path8551"
         sodipodi:insensitive="true" />
      <path
         d="m 215.94448,367.44664 q -1.38667,0 -2.53867,-0.768 -1.13066,-0.768 -1.81333,-2.09067 -0.68266,-1.32266 -0.68266,-2.98666 0,-1.68533 0.68266,-2.98666 0.704,-1.32267 1.87733,-2.06933 1.19467,-0.74667 2.66667,-0.74667 0.87466,0 1.59999,0.256 0.72534,0.256 1.25867,0.72534 0.55466,0.44799 0.896,1.04533 0.36266,0.59733 0.448,1.28 l -0.49067,-0.17067 v -2.90133 h 2.21866 v 11.19998 h -2.21866 v -2.66666 l 0.512,-0.14933 q -0.128,0.576 -0.53333,1.13066 -0.384,0.53333 -1.00267,0.96 -0.59733,0.42667 -1.344,0.68267 -0.72533,0.256 -1.53599,0.256 z m 0.57599,-2.02667 q 1.00267,0 1.77067,-0.49066 0.768,-0.49067 1.19466,-1.344 0.448,-0.87467 0.448,-1.984 0,-1.088 -0.448,-1.94133 -0.42666,-0.85333 -1.19466,-1.344 -0.768,-0.49066 -1.77067,-0.49066 -0.98133,0 -1.74933,0.49066 -0.74666,0.49067 -1.19466,1.344 -0.42667,0.85333 -0.42667,1.94133 0,1.10933 0.42667,1.984 0.448,0.85333 1.19466,1.344 0.768,0.49066 1.74933,0.49066 z"
         style="fill:#00385c"
         id="path8553"
         sodipodi:insensitive="true" />
      <path
         d="m 225.13912,367.2333 v -11.19998 h 2.19733 v 2.304 l -0.384,0.256 q 0.21333,-0.74667 0.832,-1.36534 0.61866,-0.63999 1.47199,-1.02399 0.85334,-0.40534 1.74933,-0.40534 1.28,0 2.13333,0.512 0.85334,0.49067 1.28,1.51467 0.42667,1.024 0.42667,2.58133 v 6.82665 h -2.19733 v -6.67732 q 0,-0.96 -0.256,-1.57866 -0.256,-0.64 -0.78933,-0.91734 -0.53334,-0.29866 -1.32267,-0.256 -0.64,0 -1.17333,0.21334 -0.53333,0.192 -0.93866,0.55466 -0.384,0.36267 -0.61867,0.85333 -0.21333,0.46934 -0.21333,1.024 v 6.78399 h -1.088 q -0.27733,0 -0.55467,0 -0.27733,0 -0.55466,0 z"
         style="fill:#00385c"
         id="path8555"
         sodipodi:insensitive="true" />
      <path
         d="m 242.50441,367.44664 q -1.536,0 -2.752,-0.74667 -1.19466,-0.768 -1.89866,-2.06933 -0.704,-1.32266 -0.704,-3.008 0,-1.68533 0.68266,-2.98666 0.704,-1.32266 1.89867,-2.06933 1.19466,-0.768 2.70933,-0.768 0.832,0 1.6,0.27734 0.78933,0.256 1.40799,0.72533 0.61867,0.448 0.96,1.00266 0.36267,0.53334 0.36267,1.088 l -0.64,0.0427 v -7.48799 h 2.19733 v 15.78664 h -2.19733 v -2.66666 h 0.42666 q 0,0.512 -0.34133,1.024 -0.34133,0.49066 -0.91733,0.91733 -0.55467,0.42667 -1.30133,0.68267 -0.72533,0.256 -1.49333,0.256 z m 0.29866,-1.89867 q 1.00267,0 1.77067,-0.512 0.768,-0.512 1.19466,-1.38666 0.448,-0.896 0.448,-2.02667 0,-1.13066 -0.448,-2.00533 -0.42666,-0.89599 -1.19466,-1.40799 -0.768,-0.512 -1.77067,-0.512 -1.00266,0 -1.77066,0.512 -0.768,0.512 -1.216,1.40799 -0.42666,0.87467 -0.42666,2.00533 0,1.13067 0.42666,2.02667 0.448,0.87466 1.216,1.38666 0.768,0.512 1.77066,0.512 z"
         style="fill:#00385c"
         id="path8557"
         sodipodi:insensitive="true" />
      <path
         d="m 257.37374,367.2333 v -15.78664 h 2.19733 v 15.78664 z"
         style="fill:#00385c"
         id="path8559"
         sodipodi:insensitive="true" />
      <path
         d="m 263.0484,367.2333 v -11.19998 h 2.19733 v 11.19998 z m 1.06666,-13.67464 q -0.704,0 -1.088,-0.36267 -0.38399,-0.36267 -0.38399,-1.024 0,-0.61866 0.38399,-1.00266 0.40534,-0.384 1.088,-0.384 0.704,0 1.088,0.36266 0.384,0.36267 0.384,1.024 0,0.61867 -0.40533,1.00267 -0.384,0.384 -1.06667,0.384 z"
         style="fill:#00385c"
         id="path8561"
         sodipodi:insensitive="true" />
      <path
         d="m 268.61638,367.2333 v -11.19998 h 2.19733 v 2.304 l -0.384,0.256 q 0.21333,-0.74667 0.832,-1.36534 0.61867,-0.63999 1.472,-1.02399 0.85333,-0.40534 1.74933,-0.40534 1.28,0 2.13333,0.512 0.85333,0.49067 1.28,1.51467 0.42666,1.024 0.42666,2.58133 v 6.82665 h -2.19733 v -6.67732 q 0,-0.96 -0.256,-1.57866 -0.256,-0.64 -0.78933,-0.91734 -0.53333,-0.29866 -1.32266,-0.256 -0.64,0 -1.17334,0.21334 -0.53333,0.192 -0.93866,0.55466 -0.384,0.36267 -0.61867,0.85333 -0.21333,0.46934 -0.21333,1.024 v 6.78399 h -1.088 q -0.27733,0 -0.55466,0 -0.27734,0 -0.55467,0 z"
         style="fill:#00385c"
         id="path8563"
         sodipodi:insensitive="true" />
      <path
         d="m 286.53634,367.44664 q -1.728,0 -3.072,-0.72534 -1.32266,-0.74666 -2.09066,-2.02666 -0.74667,-1.28 -0.74667,-2.944 0,-1.32266 0.42667,-2.41066 0.42667,-1.088 1.17333,-1.87733 0.768,-0.81066 1.81333,-1.23733 1.06667,-0.448 2.304,-0.448 1.088,0 2.02666,0.42667 0.93867,0.40533 1.62133,1.13066 0.704,0.72533 1.06667,1.728 0.384,0.98133 0.36266,2.15466 l -0.0213,0.93867 h -9.15199 l -0.49066,-1.74933 h 7.74399 l -0.32,0.36266 v -0.512 q -0.064,-0.704 -0.46934,-1.25866 -0.40533,-0.55467 -1.02399,-0.87467 -0.61867,-0.32 -1.344,-0.32 -1.152,0 -1.94133,0.448 -0.78933,0.42667 -1.19467,1.28 -0.40533,0.832 -0.40533,2.06933 0,1.17333 0.49067,2.048 0.49066,0.85333 1.38666,1.32266 0.896,0.46933 2.06933,0.46933 0.832,0 1.536,-0.27733 0.72533,-0.27733 1.55733,-1.00266 l 1.10933,1.55733 q -0.512,0.512 -1.25866,0.896 -0.72534,0.384 -1.55733,0.61866 -0.81067,0.21334 -1.6,0.21334 z"
         style="fill:#00385c"
         id="path8565"
         sodipodi:insensitive="true" />
      <path
         d="m 301.171,367.2333 v -14.05864 h 2.19733 v 14.05864 z m -2.32533,-9.06665 v -2.13333 h 7.12532 v 2.13333 z"
         style="fill:#00385c"
         id="path8567"
         sodipodi:insensitive="true" />
      <path
         d="m 312.90435,367.44664 q -1.64266,0 -2.94399,-0.74667 -1.28,-0.768 -2.02667,-2.06933 -0.74666,-1.32266 -0.74666,-3.008 0,-1.68533 0.74666,-2.98666 0.74667,-1.32266 2.02667,-2.06933 1.30133,-0.768 2.94399,-0.768 1.62133,0 2.90133,0.768 1.30133,0.74667 2.048,2.06933 0.74666,1.30133 0.74666,2.98666 0,1.68534 -0.74666,3.008 -0.74667,1.30133 -2.048,2.06933 -1.28,0.74667 -2.90133,0.74667 z m 0,-2.00534 q 1.00267,0 1.792,-0.49066 0.78933,-0.512 1.23733,-1.36533 0.448,-0.87467 0.42667,-1.96267 0.0213,-1.10933 -0.42667,-1.96266 -0.448,-0.87466 -1.23733,-1.36533 -0.78933,-0.49067 -1.792,-0.49067 -1.00266,0 -1.81333,0.512 -0.78933,0.49067 -1.23733,1.36533 -0.448,0.85334 -0.42667,1.94133 -0.0213,1.088 0.42667,1.96267 0.448,0.85333 1.23733,1.36533 0.81067,0.49066 1.81333,0.49066 z"
         style="fill:#00385c"
         id="path8569"
         sodipodi:insensitive="true" />
      <path
         d="m 325.66166,367.44664 q -1.53599,0 -2.75199,-0.74667 -1.19467,-0.768 -1.89866,-2.06933 -0.704,-1.32266 -0.704,-3.008 0,-1.68533 0.68266,-2.98666 0.704,-1.32266 1.89867,-2.06933 1.19466,-0.768 2.70932,-0.768 0.832,0 1.6,0.27734 0.78933,0.256 1.408,0.72533 0.61867,0.448 0.96,1.00266 0.36266,0.53334 0.36266,1.088 l -0.63999,0.0427 v -7.48799 h 2.19733 v 15.78664 h -2.19733 v -2.66666 h 0.42666 q 0,0.512 -0.34133,1.024 -0.34133,0.49066 -0.91733,0.91733 -0.55467,0.42667 -1.30133,0.68267 -0.72534,0.256 -1.49334,0.256 z m 0.29867,-1.89867 q 1.00267,0 1.77066,-0.512 0.768,-0.512 1.19467,-1.38666 0.448,-0.896 0.448,-2.02667 0,-1.13066 -0.448,-2.00533 -0.42667,-0.89599 -1.19467,-1.40799 -0.76799,-0.512 -1.77066,-0.512 -1.00266,0 -1.77066,0.512 -0.768,0.512 -1.216,1.40799 -0.42667,0.87467 -0.42667,2.00533 0,1.13067 0.42667,2.02667 0.448,0.87466 1.216,1.38666 0.768,0.512 1.77066,0.512 z"
         style="fill:#00385c"
         id="path8571"
         sodipodi:insensitive="true" />
      <path
         d="m 339.54966,367.44664 q -1.64266,0 -2.944,-0.74667 -1.27999,-0.768 -2.02666,-2.06933 -0.74666,-1.32266 -0.74666,-3.008 0,-1.68533 0.74666,-2.98666 0.74667,-1.32266 2.02666,-2.06933 1.30134,-0.768 2.944,-0.768 1.62133,0 2.90133,0.768 1.30133,0.74667 2.048,2.06933 0.74666,1.30133 0.74666,2.98666 0,1.68534 -0.74666,3.008 -0.74667,1.30133 -2.048,2.06933 -1.28,0.74667 -2.90133,0.74667 z m 0,-2.00534 q 1.00267,0 1.792,-0.49066 0.78933,-0.512 1.23733,-1.36533 0.448,-0.87467 0.42666,-1.96267 0.0213,-1.10933 -0.42666,-1.96266 -0.448,-0.87466 -1.23733,-1.36533 -0.78933,-0.49067 -1.792,-0.49067 -1.00266,0 -1.81333,0.512 -0.78933,0.49067 -1.23733,1.36533 -0.448,0.85334 -0.42667,1.94133 -0.0213,1.088 0.42667,1.96267 0.448,0.85333 1.23733,1.36533 0.81067,0.49066 1.81333,0.49066 z"
         style="fill:#00385c"
         id="path8573"
         sodipodi:insensitive="true" />
      <path
         d="m 353.65098,367.2333 v -15.78664 h 2.19733 v 15.78664 z"
         style="fill:#00385c"
         id="path8575"
         sodipodi:insensitive="true" />
      <path
         d="m 359.32562,367.2333 v -11.19998 h 2.19733 v 11.19998 z m 1.06666,-13.67464 q -0.70399,0 -1.08799,-0.36267 -0.384,-0.36267 -0.384,-1.024 0,-0.61866 0.384,-1.00266 0.40533,-0.384 1.08799,-0.384 0.704,0 1.088,0.36266 0.384,0.36267 0.384,1.024 0,0.61867 -0.40533,1.00267 -0.384,0.384 -1.06667,0.384 z"
         style="fill:#00385c"
         id="path8577"
         sodipodi:insensitive="true" />
      <path
         d="m 368.62695,367.44664 q -1.408,0 -2.53867,-0.49067 -1.13066,-0.49067 -1.87733,-1.45067 l 1.49333,-1.27999 q 0.64,0.74666 1.38667,1.088 0.768,0.31999 1.72799,0.31999 0.384,0 0.704,-0.0853 0.34134,-0.10667 0.576,-0.29866 0.256,-0.192 0.384,-0.448 0.128,-0.27734 0.128,-0.59734 0,-0.55466 -0.40533,-0.89599 -0.21333,-0.14934 -0.68267,-0.32 -0.448,-0.192 -1.17333,-0.384 -1.23733,-0.32 -2.02666,-0.72534 -0.78933,-0.40533 -1.216,-0.91733 -0.32,-0.40533 -0.46933,-0.87466 -0.14933,-0.49067 -0.14933,-1.06667 0,-0.704 0.29866,-1.28 0.32,-0.59733 0.85333,-1.02399 0.55467,-0.448 1.28,-0.68267 0.74667,-0.23467 1.57867,-0.23467 0.78933,0 1.55733,0.21334 0.78933,0.21333 1.45066,0.61866 0.66133,0.40533 1.10933,0.96 l -1.25866,1.38667 q -0.40534,-0.40534 -0.896,-0.704 -0.46933,-0.32 -0.96,-0.49067 -0.49067,-0.17067 -0.896,-0.17067 -0.448,0 -0.81066,0.0853 -0.36267,0.0853 -0.61867,0.256 -0.23467,0.17066 -0.36267,0.42666 -0.128,0.256 -0.128,0.576 0.0213,0.27733 0.128,0.53333 0.128,0.23467 0.34134,0.40534 0.23466,0.17066 0.704,0.36266 0.46933,0.192 1.19466,0.36267 1.06667,0.27733 1.74933,0.61866 0.704,0.32 1.10933,0.74667 0.42667,0.40533 0.59734,0.93867 0.17066,0.53333 0.17066,1.19466 0,0.96 -0.55466,1.728 -0.53334,0.74666 -1.45067,1.17333 -0.91733,0.42667 -2.04799,0.42667 z"
         style="fill:#00385c"
         id="path8579"
         sodipodi:insensitive="true" />
      <path
         d="m 376.49893,367.2333 v -14.05864 h 2.19733 v 14.05864 z m -2.32533,-9.06665 v -2.13333 h 7.12532 v 2.13333 z"
         style="fill:#00385c"
         id="path8581"
         sodipodi:insensitive="true" />
      <path
         d="m 393.58693,367.44664 q -1.38666,0 -2.53866,-0.768 -1.13067,-0.768 -1.81333,-2.09067 -0.68267,-1.32266 -0.68267,-2.98666 0,-1.68533 0.68267,-2.98666 0.704,-1.32267 1.87733,-2.06933 1.19466,-0.74667 2.66666,-0.74667 0.87467,0 1.6,0.256 0.72533,0.256 1.25866,0.72534 0.55467,0.44799 0.896,1.04533 0.36267,0.59733 0.448,1.28 l -0.49066,-0.17067 v -2.90133 h 2.21866 v 11.19998 h -2.21866 v -2.66666 l 0.51199,-0.14933 q -0.128,0.576 -0.53333,1.13066 -0.384,0.53333 -1.00266,0.96 -0.59734,0.42667 -1.344,0.68267 -0.72533,0.256 -1.536,0.256 z m 0.576,-2.02667 q 1.00267,0 1.77066,-0.49066 0.768,-0.49067 1.19467,-1.344 0.448,-0.87467 0.448,-1.984 0,-1.088 -0.448,-1.94133 -0.42667,-0.85333 -1.19467,-1.344 -0.76799,-0.49066 -1.77066,-0.49066 -0.98133,0 -1.74933,0.49066 -0.74667,0.49067 -1.19466,1.344 -0.42667,0.85333 -0.42667,1.94133 0,1.10933 0.42667,1.984 0.44799,0.85333 1.19466,1.344 0.768,0.49066 1.74933,0.49066 z"
         style="fill:#00385c"
         id="path8583"
         sodipodi:insensitive="true" />
      <path
         d="m 402.78157,371.92663 v -15.89331 h 2.21867 v 2.56 l -0.34134,-0.192 q 0.128,-0.64 0.72534,-1.216 0.59733,-0.59733 1.45066,-0.96 0.87466,-0.384 1.792,-0.384 1.51466,0 2.68799,0.74667 1.17333,0.74666 1.856,2.04799 0.68267,1.30133 0.68267,2.98666 0,1.664 -0.68267,2.98667 -0.66133,1.30133 -1.83466,2.06933 -1.17334,0.74666 -2.64533,0.74666 -0.98134,0 -1.89867,-0.384 -0.91733,-0.40533 -1.55733,-1.024 -0.64,-0.61866 -0.78933,-1.27999 l 0.55467,-0.29867 v 7.48799 z m 5.54666,-6.52799 q 0.98133,0 1.74933,-0.49067 0.768,-0.49066 1.216,-1.344 0.448,-0.85333 0.448,-1.94133 0,-1.08799 -0.448,-1.91999 -0.42667,-0.85333 -1.19467,-1.344 -0.76799,-0.49067 -1.77066,-0.49067 -1.00266,0 -1.77066,0.49067 -0.768,0.46933 -1.216,1.32266 -0.448,0.85334 -0.448,1.94133 0,1.088 0.448,1.94133 0.448,0.85334 1.216,1.344 0.768,0.49067 1.77066,0.49067 z"
         style="fill:#00385c"
         id="path8585"
         sodipodi:insensitive="true" />
      <path
         d="m 416.24291,371.92663 v -15.89331 h 2.21866 v 2.56 l -0.34133,-0.192 q 0.128,-0.64 0.72533,-1.216 0.59733,-0.59733 1.45066,-0.96 0.87467,-0.384 1.792,-0.384 1.51467,0 2.688,0.74667 1.17333,0.74666 1.85599,2.04799 0.68267,1.30133 0.68267,2.98666 0,1.664 -0.68267,2.98667 -0.66133,1.30133 -1.83466,2.06933 -1.17333,0.74666 -2.64533,0.74666 -0.98133,0 -1.89866,-0.384 -0.91733,-0.40533 -1.55733,-1.024 -0.64,-0.61866 -0.78934,-1.27999 l 0.55467,-0.29867 v 7.48799 z m 5.54665,-6.52799 q 0.98134,0 1.74934,-0.49067 0.76799,-0.49066 1.21599,-1.344 0.448,-0.85333 0.448,-1.94133 0,-1.08799 -0.448,-1.91999 -0.42666,-0.85333 -1.19466,-1.344 -0.768,-0.49067 -1.77067,-0.49067 -1.00266,0 -1.77066,0.49067 -0.768,0.46933 -1.216,1.32266 -0.448,0.85334 -0.448,1.94133 0,1.088 0.448,1.94133 0.448,0.85334 1.216,1.344 0.768,0.49067 1.77066,0.49067 z"
         style="fill:#00385c"
         id="path8587"
         sodipodi:insensitive="true" />
      <path
         d="m 429.74688,367.2333 v -15.78664 h 2.19733 v 15.78664 z"
         style="fill:#00385c"
         id="path8589"
         sodipodi:insensitive="true" />
      <path
         d="m 435.42152,367.2333 v -11.19998 h 2.19733 v 11.19998 z m 1.06667,-13.67464 q -0.704,0 -1.088,-0.36267 -0.384,-0.36267 -0.384,-1.024 0,-0.61866 0.384,-1.00266 0.40533,-0.384 1.088,-0.384 0.704,0 1.08799,0.36266 0.384,0.36267 0.384,1.024 0,0.61867 -0.40533,1.00267 -0.384,0.384 -1.06666,0.384 z"
         style="fill:#00385c"
         id="path8591"
         sodipodi:insensitive="true" />
      <path
         d="m 445.74685,367.44664 q -1.55734,0 -2.79467,-0.768 -1.216,-0.768 -1.94133,-2.09067 -0.704,-1.32266 -0.704,-2.96533 0,-1.64266 0.704,-2.96532 0.72533,-1.32267 1.94133,-2.09067 1.23733,-0.768 2.79467,-0.768 1.49333,0 2.70932,0.61867 1.23734,0.59733 1.87733,1.64266 l -1.21599,1.49333 q -0.34134,-0.49066 -0.87467,-0.89599 -0.53333,-0.40534 -1.13066,-0.64 -0.59734,-0.23467 -1.152,-0.23467 -1.024,0 -1.83467,0.512 -0.78933,0.49067 -1.25866,1.36533 -0.46933,0.87467 -0.46933,1.96266 0,1.088 0.49066,1.96267 0.49067,0.85333 1.30133,1.36533 0.81067,0.512 1.792,0.512 0.576,0 1.10933,-0.192 0.55467,-0.192 1.06667,-0.576 0.512,-0.384 0.96,-0.93867 l 1.21599,1.49334 q -0.68266,0.95999 -1.96266,1.57866 -1.25866,0.61867 -2.62399,0.61867 z"
         style="fill:#00385c"
         id="path8593"
         sodipodi:insensitive="true" />
      <path
         d="m 456.71215,367.44664 q -1.38667,0 -2.53867,-0.768 -1.13066,-0.768 -1.81333,-2.09067 -0.68266,-1.32266 -0.68266,-2.98666 0,-1.68533 0.68266,-2.98666 0.704,-1.32267 1.87733,-2.06933 1.19467,-0.74667 2.66667,-0.74667 0.87466,0 1.59999,0.256 0.72533,0.256 1.25867,0.72534 0.55466,0.44799 0.896,1.04533 0.36266,0.59733 0.448,1.28 l -0.49067,-0.17067 v -2.90133 h 2.21866 v 11.19998 h -2.21866 v -2.66666 l 0.512,-0.14933 q -0.128,0.576 -0.53333,1.13066 -0.384,0.53333 -1.00267,0.96 -0.59733,0.42667 -1.344,0.68267 -0.72533,0.256 -1.53599,0.256 z m 0.57599,-2.02667 q 1.00267,0 1.77067,-0.49066 0.768,-0.49067 1.19466,-1.344 0.448,-0.87467 0.448,-1.984 0,-1.088 -0.448,-1.94133 -0.42666,-0.85333 -1.19466,-1.344 -0.768,-0.49066 -1.77067,-0.49066 -0.98133,0 -1.74933,0.49066 -0.74666,0.49067 -1.19466,1.344 -0.42667,0.85333 -0.42667,1.94133 0,1.10933 0.42667,1.984 0.448,0.85333 1.19466,1.344 0.768,0.49066 1.74933,0.49066 z"
         style="fill:#00385c"
         id="path8595"
         sodipodi:insensitive="true" />
      <path
         d="m 467.29345,367.2333 v -14.05864 h 2.19733 v 14.05864 z m -2.32533,-9.06665 v -2.13333 h 7.12532 v 2.13333 z"
         style="fill:#00385c"
         id="path8597"
         sodipodi:insensitive="true" />
      <path
         d="m 474.46147,367.2333 v -11.19998 h 2.19733 v 11.19998 z m 1.06666,-13.67464 q -0.704,0 -1.08799,-0.36267 -0.384,-0.36267 -0.384,-1.024 0,-0.61866 0.384,-1.00266 0.40533,-0.384 1.08799,-0.384 0.704,0 1.088,0.36266 0.384,0.36267 0.384,1.024 0,0.61867 -0.40533,1.00267 -0.384,0.384 -1.06667,0.384 z"
         style="fill:#00385c"
         id="path8599"
         sodipodi:insensitive="true" />
      <path
         d="m 485.06413,367.44664 q -1.64267,0 -2.944,-0.74667 -1.28,-0.768 -2.02666,-2.06933 -0.74667,-1.32266 -0.74667,-3.008 0,-1.68533 0.74667,-2.98666 0.74666,-1.32266 2.02666,-2.06933 1.30133,-0.768 2.944,-0.768 1.62133,0 2.90132,0.768 1.30134,0.74667 2.048,2.06933 0.74667,1.30133 0.74667,2.98666 0,1.68534 -0.74667,3.008 -0.74666,1.30133 -2.048,2.06933 -1.27999,0.74667 -2.90132,0.74667 z m 0,-2.00534 q 1.00266,0 1.79199,-0.49066 0.78933,-0.512 1.23733,-1.36533 0.448,-0.87467 0.42667,-1.96267 0.0213,-1.10933 -0.42667,-1.96266 -0.448,-0.87466 -1.23733,-1.36533 -0.78933,-0.49067 -1.79199,-0.49067 -1.00267,0 -1.81333,0.512 -0.78934,0.49067 -1.23734,1.36533 -0.448,0.85334 -0.42666,1.94133 -0.0213,1.088 0.42666,1.96267 0.448,0.85333 1.23734,1.36533 0.81066,0.49066 1.81333,0.49066 z"
         style="fill:#00385c"
         id="path8601"
         sodipodi:insensitive="true" />
      <path
         d="m 493.14943,367.2333 v -11.19998 h 2.19733 v 2.304 l -0.384,0.256 q 0.21333,-0.74667 0.832,-1.36534 0.61867,-0.63999 1.472,-1.02399 0.85333,-0.40534 1.74933,-0.40534 1.28,0 2.13333,0.512 0.85333,0.49067 1.28,1.51467 0.42666,1.024 0.42666,2.58133 v 6.82665 h -2.19733 v -6.67732 q 0,-0.96 -0.256,-1.57866 -0.256,-0.64 -0.78933,-0.91734 -0.53333,-0.29866 -1.32266,-0.256 -0.64,0 -1.17333,0.21334 -0.53334,0.192 -0.93867,0.55466 -0.384,0.36267 -0.61867,0.85333 -0.21333,0.46934 -0.21333,1.024 v 6.78399 h -1.088 q -0.27733,0 -0.55466,0 -0.27734,0 -0.55467,0 z"
         style="fill:#00385c"
         id="path8603"
         sodipodi:insensitive="true" />
    </g>
  </g>
  <g
     inkscape:groupmode="layer"
     id="layer4"
     inkscape:label="Heading"
     transform="translate(-77.151098,-71.376757)"
     style="display:inline"
     sodipodi:insensitive="true">
    <g
       aria-label="GoDo"
       transform="matrix(0.26458333,0,0,0.26458333,77.175306,23.017318)"
       id="text61"
       style="font-size:74.6667px;white-space:pre;shape-inside:url(#rect63);display:inline"
       sodipodi:insensitive="true">
      <path
         d="m 168.69778,286.23719 q -5.67467,0 -10.60267,-2.016 -4.928,-2.09066 -8.66134,-5.74933 -3.73333,-3.65867 -5.824,-8.51201 -2.016,-4.928 -2.016,-10.60267 0,-5.6 2.016,-10.45334 2.09067,-4.85333 5.74933,-8.43733 3.73334,-3.65867 8.66134,-5.67467 4.928,-2.016 10.60267,-2.016 3.95734,0 7.69067,1.12 3.80801,1.12 6.86934,3.136 3.06134,2.016 5.00267,4.62933 l -5.22667,5.45067 q -2.24,-2.16533 -4.62934,-3.584 -2.31466,-1.41867 -4.77866,-2.16533 -2.46401,-0.74667 -4.92801,-0.74667 -4.032,0 -7.46667,1.41867 -3.36,1.41866 -5.97333,3.95733 -2.53867,2.53867 -3.95734,5.97334 -1.41867,3.36 -1.41867,7.392 0,3.88267 1.49334,7.39201 1.49333,3.43466 4.10667,6.048 2.688,2.61333 6.12267,4.10667 3.50933,1.49333 7.392,1.49333 2.912,0 5.52534,-0.82133 2.61333,-0.896 4.62933,-2.464 2.016,-1.568 3.136,-3.58401 1.12,-2.09066 1.12,-4.40533 v -1.49334 l 1.12,1.04534 h -15.97867 v -7.98934 h 23.14668 q 0.14933,0.82134 0.224,1.64267 0.0747,0.74667 0.0747,1.49333 0.0747,0.672 0.0747,1.344 0,5.15201 -1.792,9.40801 -1.792,4.18133 -5.00267,7.24267 -3.136,3.06133 -7.392,4.77867 -4.18134,1.64266 -9.10934,1.64266 z"
         style="fill:#00add8"
         id="path8534"
         sodipodi:insensitive="true" />
      <path
         d="m 218.20186,286.23719 q -5.74934,0 -10.30401,-2.61333 -4.48,-2.688 -7.09333,-7.24267 -2.61334,-4.62934 -2.61334,-10.528 0,-5.89867 2.61334,-10.45334 2.61333,-4.62934 7.09333,-7.24267 4.55467,-2.688 10.30401,-2.688 5.67467,0 10.15467,2.688 4.55467,2.61333 7.168,7.24267 2.61334,4.55467 2.61334,10.45334 0,5.89866 -2.61334,10.528 -2.61333,4.55467 -7.168,7.24267 -4.48,2.61333 -10.15467,2.61333 z m 0,-7.01867 q 3.50933,0 6.272,-1.71733 2.76267,-1.792 4.33067,-4.77867 1.568,-3.06133 1.49333,-6.86933 0.0747,-3.88267 -1.49333,-6.86934 -1.568,-3.06134 -4.33067,-4.77867 -2.76267,-1.71733 -6.272,-1.71733 -3.50934,0 -6.34667,1.792 -2.76267,1.71733 -4.33067,4.77867 -1.568,2.98666 -1.49333,6.79467 -0.0747,3.808 1.49333,6.86933 1.568,2.98667 4.33067,4.77867 2.83733,1.71733 6.34667,1.71733 z"
         style="fill:#00add8"
         id="path8536"
         sodipodi:insensitive="true" />
      <path
         d="m 248.44186,285.49053 v -52.26669 h 20.45867 q 5.60001,0 10.08001,1.86666 4.55467,1.86667 7.76533,5.37601 3.21067,3.50933 4.92801,8.288 1.71733,4.77867 1.71733,10.60267 0,5.824 -1.71733,10.67734 -1.71734,4.77867 -4.92801,8.288 -3.136,3.43467 -7.69067,5.30134 -4.55466,1.86667 -10.15467,1.86667 z m 8.064,-6.94401 -0.224,-0.82133 h 12.24534 q 3.95733,0 7.01867,-1.26933 3.136,-1.26934 5.22667,-3.584 2.16533,-2.38934 3.28533,-5.82401 1.12,-3.43467 1.12,-7.69067 0,-4.256 -1.12,-7.616 -1.12,-3.43467 -3.28533,-5.824 -2.16534,-2.38934 -5.22667,-3.65867 -3.06134,-1.26934 -7.01867,-1.26934 h -12.46934 l 0.448,-0.672 z"
         style="fill:#00385c"
         id="path8538"
         sodipodi:insensitive="true" />
      <path
         d="m 319.9725,286.23719 q -5.74933,0 -10.304,-2.61333 -4.48,-2.688 -7.09334,-7.24267 -2.61333,-4.62934 -2.61333,-10.528 0,-5.89867 2.61333,-10.45334 2.61334,-4.62934 7.09334,-7.24267 4.55467,-2.688 10.304,-2.688 5.67467,0 10.15467,2.688 4.55467,2.61333 7.16801,7.24267 2.61333,4.55467 2.61333,10.45334 0,5.89866 -2.61333,10.528 -2.61334,4.55467 -7.16801,7.24267 -4.48,2.61333 -10.15467,2.61333 z m 0,-7.01867 q 3.50934,0 6.27201,-1.71733 2.76266,-1.792 4.33066,-4.77867 1.56801,-3.06133 1.49334,-6.86933 0.0747,-3.88267 -1.49334,-6.86934 -1.568,-3.06134 -4.33066,-4.77867 -2.76267,-1.71733 -6.27201,-1.71733 -3.50933,0 -6.34667,1.792 -2.76266,1.71733 -4.33067,4.77867 -1.568,2.98666 -1.49333,6.79467 -0.0747,3.808 1.49333,6.86933 1.56801,2.98667 4.33067,4.77867 2.83734,1.71733 6.34667,1.71733 z"
         style="fill:#00385c"
         id="path8540"
         sodipodi:insensitive="true" />
    </g>
  </g>
  <metadata
     id="metadata8471">
    <rdf:RDF>
      <cc:Work
         rdf:about="">
        <cc:license
           rdf:resource="http://creativecommons.org/licenses/by-sa/4.0/" />
      </cc:Work>
      <cc:License
         rdf:about="http://creativecommons.org/licenses/by-sa/4.0/">
        <cc:permits
           rdf:resource="http://creativecommons.org/ns#Reproduction" />
        <cc:permits
           rdf:resource="http://creativecommons.org/ns#Distribution" />
        <cc:requires
           rdf:resource="http://creativecommons.org/ns#Notice" />
        <cc:requires
           rdf:resource="http://creativecommons.org/ns#Attribution" />
        <cc:permits
           rdf:resource="http://creativecommons.org/ns#DerivativeWorks" />
        <cc:requires
           rdf:resource="http://creativecommons.org/ns#ShareAlike" />
      </cc:License>
    </rdf:RDF>
  </metadata>
</svg>
